<?xml version="1.0" encoding="utf-8"?>
<!-- Generator: Adobe Illustrator 16.2.1, SVG Export Plug-In . SVG Version: 6.00 Build 0)  -->
<!DOCTYPE svg PUBLIC "-//W3C//DTD SVG 1.1//EN" "http://www.w3.org/Graphics/SVG/1.1/DTD/svg11.dtd">
<svg version="1.1" id="Layer_1" xmlns="http://www.w3.org/2000/svg" xmlns:xlink="http://www.w3.org/1999/xlink" x="0px" y="0px"
	 width="374.742px" height="300.281px" viewBox="0 0 374.742 300.281" enable-background="new 0 0 374.742 300.281"
	 xml:space="preserve">
<path fill="#C0DEA6" fill-opacity="0.5" stroke="#FFFFFF" stroke-width="7" stroke-miterlimit="10" d="M3.521,118.69
	c-0.037,27.849-0.771,76.245,11.176,102c6.812,14.687,20.979,31.754,33.231,42.371c23.408,20.286,42.935,38.843,75.887,32.431
	c48.854-9.506,94.876-34.009,142.781-47.698c13.275-3.794,35.712-7.157,43.996-19.311c14.872-21.823,11.517-51.091,15.286-75.975
	c5.032-33.213,7.062-21.917,36.246-34.1c38-42.207-53.059-57.889-84.604-87.719C265,18.851,198.055,7.073,165.41,4.69
	c-52.427-3.827-76.68,3.071-97.89,0C24.74-1.504,3.578,75.589,3.521,118.69z"/>
</svg>
