<?xml version="1.0" encoding="utf-8"?>
<!-- Generator: Adobe Illustrator 16.2.1, SVG Export Plug-In . SVG Version: 6.00 Build 0)  -->
<!DOCTYPE svg PUBLIC "-//W3C//DTD SVG 1.1//EN" "http://www.w3.org/Graphics/SVG/1.1/DTD/svg11.dtd">
<svg version="1.1" id="Layer_1" xmlns="http://www.w3.org/2000/svg" xmlns:xlink="http://www.w3.org/1999/xlink" x="0px" y="0px"
	 width="389.711px" height="533.792px" viewBox="0 0 389.711 533.792" enable-background="new 0 0 389.711 533.792"
	 xml:space="preserve">
<path fill="#E2BA93" fill-opacity="0.5" stroke="#FFFFFF" stroke-width="7" stroke-miterlimit="10" d="M58.039,345.842
	c2.982,4.637,27.273,47.732,29.991,52.602c21.417,38.379,13.098,42.518,36.774,79.721c7.516,11.809,36.524,48.087,51.447,51.543
	c29.156,6.745,86.504-46.747,108-62c45.074-31.984-0.194-53.64-22-102c-16.004-35.493-8.291-59.949,15.613-93.843
	c18.529-26.271,49.521-50.126,68.387-76.157c15.134-20.882,23.04-44.16,28.754-70.117c4.705-21.446,29.598-112.138-14.754-121.572
	c-33.633-7.154-133.615,62.043-159.636,72.994c-35.014,14.735-34.522,35.417-40.89,69.859c-6.498,35.153-13.43,38.623-49.475,50.836
	C84.264,206.512-9.613,221.17,5.044,264.225c5.989,17.595,20.818,35.087,31.378,50.223
	C43.802,325.025,51.203,335.216,58.039,345.842z"/>
</svg>
